<?xml version="1.0" encoding="utf-8"?>
<!-- Generator: Adobe Illustrator 21.0.2, SVG Export Plug-In . SVG Version: 6.00 Build 0)  -->
<svg version="1.1" id="Layer_1" xmlns="http://www.w3.org/2000/svg" xmlns:xlink="http://www.w3.org/1999/xlink" x="0px" y="0px"
	 viewBox="0 0 339.9 339" style="enable-background:new 0 0 339.9 339;" xml:space="preserve">
<style type="text/css">
	.st0{fill:#008290;}
	.st1{fill:#100E0F;}
	.st2{clip-path:url(#SVGID_2_);}
	.st3{clip-path:url(#SVGID_4_);fill:#010101;}
</style>
<rect class="st0" width="339.9" height="339"/>
<g>
	<g>
		<path class="st1" d="M139.4,196.9h-10.9c-0.3,0-0.5,0.2-0.5,0.5v5.3c0,0.3,0.2,0.5,0.5,0.5h4.3v6.6c0,0-1,0.3-3.6,0.3
			c-3.1,0-7.5-1.1-7.5-10.7c0-9.6,4.5-10.9,8.8-10.9c3.7,0,5.3,0.6,6.3,1c0.3,0.1,0.6-0.2,0.6-0.5l1.2-5.2c0-0.1,0-0.3-0.2-0.4
			c-0.4-0.3-2.9-1.7-9.2-1.7c-7.3,0-14.8,3.1-14.8,18s8.6,17.1,15.8,17.1c6,0,9.6-2.6,9.6-2.6c0.1-0.1,0.2-0.3,0.2-0.4v-16.4
			C139.9,197.1,139.7,196.9,139.4,196.9z"/>
		<path class="st1" d="M195.7,183.6c0-0.3-0.2-0.5-0.5-0.5H189c-0.3,0-0.5,0.2-0.5,0.5v11.9h-9.6v-11.9c0-0.3-0.2-0.5-0.5-0.5h-6.2
			c-0.3,0-0.5,0.2-0.5,0.5v32.2c0,0.3,0.2,0.5,0.5,0.5h6.2c0.3,0,0.5-0.2,0.5-0.5V202h9.6v13.8c0,0.3,0.2,0.5,0.5,0.5h6.2
			c0.3,0,0.5-0.2,0.5-0.5V183.6z"/>
		<g>
			<g>
				<path class="st1" d="M151,187.9c0-2.2-1.8-4-4-4s-4,1.8-4,4s1.8,4,4,4S151,190.1,151,187.9z"/>
				<path class="st1" d="M150.5,209c0-0.8,0-14.9,0-14.9c0-0.3-0.2-0.5-0.5-0.5h-6.1c-0.3,0-0.5,0.3-0.5,0.6c0,0,0,17.9,0,21.3
					c0,0.6,0.4,0.8,0.9,0.8c0,0,2.6,0,5.5,0c0.6,0,0.8-0.3,0.8-0.8C150.5,214.4,150.5,209.9,150.5,209z"/>
			</g>
		</g>
		<path class="st1" d="M219.1,193.7H213c-0.3,0-0.5,0.2-0.5,0.5V210c0,0-1.6,1.1-3.8,1.1s-2.8-1-2.8-3.2s0-13.8,0-13.8
			c0-0.3-0.2-0.5-0.5-0.5h-6.2c-0.3,0-0.5,0.2-0.5,0.5c0,0,0,8.4,0,14.8c0,6.4,3.6,8,8.5,8c4,0,7.3-2.2,7.3-2.2s0.2,1.2,0.2,1.3
			c0.1,0.1,0.3,0.3,0.4,0.3h3.9c0.3,0,0.5-0.2,0.5-0.5v-21.6C219.6,193.9,219.3,193.7,219.1,193.7z"/>
		<path class="st1" d="M235.7,193c-3.5,0-5.8,1.5-5.8,1.5v-10.9c0-0.3-0.2-0.5-0.5-0.5h-6.2c-0.3,0-0.5,0.2-0.5,0.5v32.2
			c0,0.3,0.2,0.5,0.5,0.5h4.3c0.2,0,0.3-0.1,0.4-0.3c0.1-0.2,0.3-1.5,0.3-1.5s2.5,2.4,7.3,2.4c5.6,0,8.8-2.8,8.8-12.8
			C244.3,194.3,239.2,193,235.7,193z M233.3,211.1c-2.1-0.1-3.6-1-3.6-1v-10.2c0,0,1.4-0.9,3.2-1c2.2-0.2,4.3,0.5,4.3,5.7
			C237.2,210.1,236.3,211.2,233.3,211.1z"/>
		<path class="st1" d="M168.2,193.7h-4.6v-6.1c0-0.2-0.1-0.3-0.4-0.3h-6.3c-0.2,0-0.4,0.1-0.4,0.3v6.3c0,0-3.2,0.8-3.4,0.8
			c-0.2,0.1-0.4,0.3-0.4,0.5v4c0,0.3,0.2,0.5,0.5,0.5h3.2c0,0,0,4.1,0,9.5c0,7.1,5,7.8,8.3,7.8c1.5,0,3.4-0.5,3.7-0.6
			c0.2-0.1,0.3-0.3,0.3-0.5v-4.4c0-0.3-0.2-0.5-0.5-0.5s-1,0.1-1.7,0.1c-2.3,0-3-1.1-3-2.4c0-1.4,0-9,0-9h4.6c0.3,0,0.5-0.2,0.5-0.5
			v-5C168.7,193.9,168.5,193.7,168.2,193.7z"/>
	</g>
	<g>
		<g>
			<g>
				<g>
					<g>
						<g>
							<g>
								<g>
									<defs>
										<rect id="SVGID_1_" x="154.7" y="122.6" width="49.2" height="48.4"/>
									</defs>
									<clipPath id="SVGID_2_">
										<use xlink:href="#SVGID_1_"  style="overflow:visible;"/>
									</clipPath>
									<g class="st2">
										<g>
											<g>
												<g>
													<g id="XMLID_2_">
														<g>
															<g>
																<defs>
																	<rect id="SVGID_3_" x="154.7" y="122.6" width="49.2" height="48.4"/>
																</defs>
																<clipPath id="SVGID_4_">
																	<use xlink:href="#SVGID_3_"  style="overflow:visible;"/>
																</clipPath>
																<path id="XMLID_9_" class="st3" d="M200.9,147.3c0-12-9.7-21.6-21.6-21.6c-12,0-21.6,9.7-21.6,21.6
																	c0,9.5,6.1,17.6,14.6,20.4c0.5-0.4,1.1-0.8,1.1-1.6c0-1.2,0-4.2,0-4.2s-1,0.2-2.3,0.2c-3.4,0-4.5-2.2-5-3.4
																	c-0.7-1.6-1.5-2.3-2.4-2.9c-0.6-0.3-0.7-0.8,0-0.9c3-0.6,3.8,3.4,5.8,4c1.4,0.5,3.3,0.2,4.2-0.3
																	c0.1-1.2,1-2.2,1.7-2.8c-5.1-0.5-8.1-2.2-9.6-5l-0.2-0.3l-0.4-0.9l-0.1-0.3c-0.5-1.4-0.7-3.1-0.7-4.9
																	c0-3.3,1-4.5,2.4-6.2c-1-3.7,0.4-6.3,0.4-6.3s2.2-0.5,6.3,2.5c2.3-1,8.2-1,11.1-0.2c1.7-1.2,4.9-2.8,6.2-2.3
																	c0.3,0.6,1.1,2.2,0.5,5.8c0.5,0.8,2.7,2.4,2.7,7.2c0,1.7-0.2,3.2-0.6,4.5l-0.2,0.6c0,0-0.1,0.3-0.2,0.6l-0.1,0.3
																	c-1.5,3.3-4.6,4.5-9.6,5c1.6,1,2.1,2.3,2.1,5.7s0,3.9,0,4.7c0,0.7,0.6,1.2,1.1,1.6
																	C194.8,164.9,200.9,156.8,200.9,147.3"/>
															</g>
														</g>
													</g>
												</g>
											</g>
										</g>
									</g>
								</g>
							</g>
						</g>
					</g>
				</g>
			</g>
		</g>
	</g>
</g>
</svg>
