<?xml version="1.0" encoding="utf-8"?>
<!-- Generator: Adobe Illustrator 21.0.2, SVG Export Plug-In . SVG Version: 6.00 Build 0)  -->
<svg version="1.1" id="Layer_1" xmlns="http://www.w3.org/2000/svg" xmlns:xlink="http://www.w3.org/1999/xlink" x="0px" y="0px"
	 viewBox="0 0 32 32" style="enable-background:new 0 0 32 32;" xml:space="preserve">
<title>a</title>
<g>
	<path d="M29.6,18l-6.7-6.7c-0.1-0.1-0.1-0.1-0.2-0.2L14,2.4c-3.2-3.2-8.4-3.2-11.6,0s-3.2,8.4,0,11.6l6.8,6.8l0,0l8.8,8.8
		c3.2,3.2,8.4,3.2,11.6,0S32.8,21.2,29.6,18z M3.8,3.8c2.4-2.4,6.3-2.4,8.7,0c0,0,0,0,0,0l3,3c-0.1,0-0.1,0-0.2,0
		c-0.1,0-0.3,0-0.4,0c-0.1,0-0.2,0-0.3,0c-0.2,0-0.4,0-0.6,0s-0.4,0-0.6,0.1S13.3,7,13.1,7.1s-0.4,0.1-0.5,0.1S12.2,7.3,12,7.4
		c-0.2,0.1-0.3,0.1-0.5,0.2c-0.1,0-0.1,0-0.2,0.1L10,6.3c-1-1-2.6-1-3.7,0c-1,1-1,2.7,0,3.7l1.9,1.9l4.9,4.9l2,2c0,0,0,0,0,0
		c1,0.9,2.6,0.9,3.6,0c0.1-0.1,0.3-0.3,0.4-0.5l2.6,2.6c-0.1,0.2-0.3,0.3-0.4,0.4c-0.3,0.3-0.7,0.6-1.1,0.9
		c-2.4,1.5-5.6,1.2-7.7-0.9l-2-2l0,0l-6.8-6.8C1.4,10.1,1.4,6.2,3.8,3.8z M9.6,8.8C9.5,8.9,9.3,9.1,9.2,9.2S8.9,9.5,8.8,9.7l-1-1
		C7.5,8.4,7.5,8,7.8,7.8c0.2-0.2,0.6-0.2,0.8,0L9.6,8.8z M22.8,22.8c0.1-0.1,0.3-0.3,0.4-0.4l1,1c0.2,0.2,0.2,0.6,0,0.8c0,0,0,0,0,0
		c-0.2,0.2-0.6,0.2-0.8,0l-1-1C22.5,23.1,22.7,22.9,22.8,22.8z M14.5,15.3c-0.2-0.2-0.1-0.6,0.1-0.8c0.2-0.2,0.6-0.2,0.8,0l2,2
		c0.2,0.2,0.2,0.6,0,0.8c-0.2,0.2-0.6,0.2-0.9,0l0,0l-1.9-1.9L14.5,15.3L14.5,15.3L14.5,15.3L14.5,15.3
		C14.5,15.4,14.5,15.4,14.5,15.3z M28.2,28.2c-2.4,2.4-6.3,2.4-8.7,0l-3-3c0.1,0,0.1,0,0.2,0c0.1,0,0.3,0,0.4,0c0.1,0,0.2,0,0.3,0
		c0.2,0,0.4,0,0.6,0s0.4,0,0.6-0.1c0.2,0,0.3-0.1,0.5-0.1c0.2,0,0.4-0.1,0.6-0.1s0.4-0.1,0.5-0.2s0.3-0.1,0.5-0.2
		c0.1,0,0.1,0,0.2-0.1l1.3,1.3c1,0.9,2.6,0.9,3.7,0c1-1,1-2.7,0-3.7c0,0,0,0,0,0l-1.9-1.9l0,0l-4.9-4.9l0,0l-2-2c-1-1-2.6-1-3.7,0
		c-0.1,0.1-0.3,0.3-0.4,0.5l-2.6-2.6c0.1-0.2,0.3-0.3,0.4-0.4c2.4-2.4,6.3-2.4,8.7,0l8.8,8.8C30.6,21.9,30.6,25.8,28.2,28.2
		C28.2,28.2,28.2,28.2,28.2,28.2L28.2,28.2z"/>
</g>
</svg>
