<?xml version="1.0" encoding="utf-8"?>
<!-- Generator: Adobe Illustrator 21.0.2, SVG Export Plug-In . SVG Version: 6.00 Build 0)  -->
<svg version="1.1" id="Layer_1" xmlns="http://www.w3.org/2000/svg" xmlns:xlink="http://www.w3.org/1999/xlink" x="0px" y="0px"
	 viewBox="0 0 32 32.6" style="enable-background:new 0 0 32 32.6;" xml:space="preserve">
<style type="text/css">
	.st0{display:none;}
	.st1{display:inline;}
</style>
<g class="st0">
	<rect x="-246.2" y="-80.3" class="st1" width="405.8" height="194.3"/>
</g>
<g>
	<path d="M22.5,27.7v-3.5h-13v3.5H8.3c-0.9,0-1.6,0.7-1.6,1.6s0.7,1.6,1.6,1.6h15.3c0.9,0,1.6-0.7,1.6-1.6s-0.7-1.6-1.6-1.6H10.5
		v-2.5h11v2.5H22.5z M24.2,29.3c0,0.3-0.3,0.6-0.6,0.6H8.3c-0.3,0-0.6-0.3-0.6-0.6s0.3-0.6,0.6-0.6h15.3C24,28.7,24.2,29,24.2,29.3z
		"/>
	<path d="M30,1.1H2c-1.1,0-2,0.9-2,2v17c0,1.1,0.9,2,2,2h28c1.1,0,2-0.9,2-2v-17C32,2,31.1,1.1,30,1.1z M31,20.1c0,0.6-0.4,1-1,1H2
		c-0.6,0-1-0.4-1-1v-17c0-0.6,0.4-1,1-1h28c0.6,0,1,0.4,1,1V20.1z"/>
	<path d="M22.7,3.5L13.1,13l-1.9,0.8l-2,5.6l5.7-2l0.8-1.9L25.2,6L22.7,3.5z M23.8,6.1l-6.1,6L16.6,11l6.1-6L23.8,6.1z M17.1,12.8
		l-0.3,0.3L15.7,12l0.3-0.3L17.1,12.8z M14.9,12.7l1.1,1.1l-0.6,0.6l-1.1-1.1L14.9,12.7z M14.1,16.7l-3.3,1.2l1.2-3.3l1.6-0.7
		l1.2,1.2L14.1,16.7z"/>
	<ellipse transform="matrix(0.7064 -0.7078 0.7078 0.7064 -7.204 13.8826)" cx="13.1" cy="15.6" rx="0.6" ry="0.6"/>
</g>
<g class="st0">
	<g class="st1">
		<path d="M10,24.7v3H8.3c-0.9,0-1.6,0.7-1.6,1.6s0.7,1.6,1.6,1.6h15.3c0.9,0,1.6-0.7,1.6-1.6s-0.7-1.6-1.6-1.6H22v-3H10z"/>
		<polygon points="16.6,11 17.8,12.1 23.8,6.1 22.7,4.9 		"/>
		<polygon points="14.4,13.2 15.5,14.4 17.1,12.8 15.9,11.7 		"/>
		<path d="M12,14.6l-1.2,3.3l3.3-1.2l0.7-1.6l-1.2-1.2L12,14.6z M13.6,16c-0.2,0.2-0.6,0.2-0.8,0s-0.2-0.6,0-0.8s0.6-0.2,0.8,0
			S13.8,15.8,13.6,16z"/>
		<path d="M30,1.1H2c-1.1,0-2,0.9-2,2v17c0,1.1,0.9,2,2,2h28c1.1,0,2-0.9,2-2v-17C32,2,31.1,1.1,30,1.1z M15.7,15.6l-0.8,1.9l-5.7,2
			l2-5.6l1.9-0.8l9.5-9.5l2.6,2.6L15.7,15.6z"/>
	</g>
</g>
</svg>
