<?xml version="1.0" encoding="utf-8"?>
<!-- Generator: Adobe Illustrator 23.0.1, SVG Export Plug-In . SVG Version: 6.00 Build 0)  -->
<svg version="1.1" id="Capa_1" xmlns="http://www.w3.org/2000/svg" xmlns:xlink="http://www.w3.org/1999/xlink" x="0px" y="0px"
	 viewBox="0 0 100 125" style="enable-background:new 0 0 100 125;" xml:space="preserve">
<path d="M91.2,88.55L67.93,65.28c5.39-6.2,8.66-14.28,8.66-23.12c0-19.47-15.84-35.31-35.31-35.31C21.8,6.84,5.96,22.68,5.96,42.15
	S21.8,77.47,41.27,77.47c8.84,0,16.92-3.27,23.12-8.66l23.27,23.27c0.49,0.49,1.13,0.73,1.77,0.73c0.64,0,1.28-0.24,1.77-0.73
	C92.18,91.11,92.18,89.52,91.2,88.55z M10.96,42.15c0-16.72,13.6-30.31,30.31-30.31c16.72,0,30.31,13.6,30.31,30.31
	s-13.6,30.31-30.32,30.31C24.56,72.47,10.96,58.87,10.96,42.15z"/>
</svg>
