<?xml version="1.0" encoding="utf-8"?>
<!-- Generator: Adobe Illustrator 21.0.2, SVG Export Plug-In . SVG Version: 6.00 Build 0)  -->
<svg version="1.1"
	 id="Layer_1" xmlns:cc="http://creativecommons.org/ns#" xmlns:dc="http://purl.org/dc/elements/1.1/" xmlns:inkscape="http://www.inkscape.org/namespaces/inkscape" xmlns:rdf="http://www.w3.org/1999/02/22-rdf-syntax-ns#" xmlns:sodipodi="http://sodipodi.sourceforge.net/DTD/sodipodi-0.dtd" xmlns:svg="http://www.w3.org/2000/svg"
	 xmlns="http://www.w3.org/2000/svg" xmlns:xlink="http://www.w3.org/1999/xlink" x="0px" y="0px" viewBox="0 0 29 32.9"
	 style="enable-background:new 0 0 29 32.9;" xml:space="preserve">
<style type="text/css">
	.st0{fill:#FFFFFF;stroke:#000000;stroke-width:0.25;stroke-miterlimit:10;}
	.st1{fill:none;stroke:#000000;stroke-width:0.25;stroke-miterlimit:10;}
	.st2{fill:none;stroke:#000000;stroke-width:0.75;stroke-miterlimit:10;}
</style>
<path class="st0" d="M17,10.9c-0.1,1-0.3,1.9-0.3,2.9c-0.1,0.5-0.3,0.8-0.8,0.7c-0.8-0.1-1.6,0-2.4,0c-0.5,0-0.7-0.2-0.8-0.6
	c-0.1-0.9-0.2-1.9-0.3-2.9c1.1,0.2,2.2,0.1,3.4,0.1c0.4,0,0.8-0.1,1.1-0.3C17,10.9,17,10.9,17,10.9z"/>
<path class="st0" d="M14.9,10c0.5,0,1,0,1.6,0.1c0.3,0,0.7-0.2,0.8,0.3c0.1,0.3,0.2,0.7-0.3,0.9l0,0c-1.5,0.2-3,0.2-4.5,0
	c-0.3-0.3-0.3-0.6-0.3-0.9C12.3,10,12.8,10,13,10c0.5,0,1,0,1.5,0C14.7,9.9,14.9,10,14.9,10z"/>
<path class="st0" d="M14.6,7.7c-1.1-1.1-1.2-2.4-0.3-3.3c0.2-0.2,0.3-0.5,0.6-0.3c0.1,1.1,0.2,2.3-0.1,3.4
	C14.9,7.7,14.7,7.8,14.6,7.7z"/>
<path class="st0" d="M14.8,7.7c0-0.9,0-1.9,0-2.8c0-0.3-0.1-0.5,0.2-0.7c1.3,0.9,1.3,2.4,0,3.5C14.9,7.7,14.9,7.7,14.8,7.7z"/>
<path class="st1" d="M14.9,8.3c0.3-0.2,0.4-0.5,0.8-0.8C16.5,7,17.2,6.8,18,7.3c0,0.1-1.8,1.5-2.8,1.9c-0.1,0.1-0.3,0-0.3-0.1
	C14.7,8.8,14.7,8.5,14.9,8.3z"/>
<path class="st0" d="M11.6,7.4c1.1-0.6,1.9-0.3,2.9,0.8c0.3,0.3,0.5,0.8,0,1.1l0,0c-0.8-0.4-1.6-0.8-2.4-1.3
	C11.9,7.9,11.6,7.8,11.6,7.4z"/>
<path class="st0" d="M14.9,9.2c1-0.6,2.1-1.1,3-1.9c0.2,1-0.7,2-1.8,2.1C15.8,9.5,15.4,9.4,14.9,9.2C14.9,9.4,14.9,9.3,14.9,9.2
	L14.9,9.2z"/>
<path class="st0" d="M11.6,7.4c0.8,0.7,1.7,1,2.5,1.5C14.3,9,14.5,9,14.5,9.3c-1.5,0.4-2.8-0.3-3-1.7C11.4,7.6,11.4,7.4,11.6,7.4z"
	/>
<path d="M14.8,7.7c0.1,0,0.1,0,0.2,0c0,0.2,0,0.4,0,0.6c0,0.3,0,0.6,0,0.9c0,0.1,0,0.1,0,0.2c0,0.2,0,0.4,0,0.6
	c-0.2,0.2-0.3,0.1-0.4,0c0-0.3,0-0.4-0.1-0.7c0.3-0.3,0-0.8,0-1.1c0-0.2,0.1-0.3,0.1-0.6C14.6,7.7,14.7,7.7,14.8,7.7z"/>
<path class="st2" d="M3.9,22.2c-0.5,0.7-0.3,1.3,0.4,1.6c0.2,0.1,0.3,0.3,0.3,0.6c0,0.3-0.2,0.6-0.3,0.8c-0.4,1.3,0.3,2.4,1.6,2.4
	c0.9,0,1.9,0,2.9,0.1c1.2,0,1.9,0.6,2.3,1.7c0.3,0.7,0.4,1.4,0.7,2.1c0.1,0.2,0.3,0.3,0.3,0.3c4,0,8,0,12,0c0.1,0,0.1,0,0.3,0
	c0-0.2,0-0.3,0-0.5c-0.2-3.3,0-6.5,0.8-9.7c0.3-1,0.8-1.9,1.2-2.9c0.5-1.1,1.3-2.2,1.4-3.4c0.7-3.5-0.2-6.7-2.4-9.5
	C21.2,0.6,13.2-0.4,7.9,3.7c-2.4,1.9-3.9,4.5-4.2,7.6c-0.1,0.4,0,0.9,0.1,1.4c0.2,0.7,0.1,1.3-0.3,1.9c-0.5,0.8-1,1.7-1.6,2.5
	c-0.3,0.4-0.5,0.8-0.7,1.3c-0.3,0.6-0.1,1.1,0.6,1.3c0.4,0.2,0.8,0.3,1.3,0.3c0.5,0.1,0.6,0.2,0.5,0.7c0,0.2-0.1,0.3-0.2,0.4
	c-0.3,0.5-0.3,0.6,0.3,1C3.6,22,3.8,22.1,3.9,22.2z"/>
</svg>
