<?xml version="1.0" encoding="utf-8"?>
<!-- Generator: Adobe Illustrator 21.0.2, SVG Export Plug-In . SVG Version: 6.00 Build 0)  -->
<svg version="1.1" id="Layer_1" xmlns="http://www.w3.org/2000/svg" xmlns:xlink="http://www.w3.org/1999/xlink" x="0px" y="0px"
	 viewBox="0 0 67 102.5" style="enable-background:new 0 0 67 102.5;" xml:space="preserve">
<style type="text/css">
	.st0{fill:#FFFFFF;}
</style>
<g>
	<path d="M18.6,78.2c-0.4,2.4-1.5,2.8-8.5,3.8c0.1,3.4,2.6,6.5,6.2,7.2c2.7,0.5,5.4,0.6,8.1,0.6c1.3,0,1.7,0.5,1.7,1.7
		c0.2,3.3,0.4,6.6,0.6,10.1c0.5,0,1,0.1,1.5,0.1c6.5,0,13,0,19.5,0c1.4,0,1.7-0.4,1.6-1.8c-0.4-5.6-0.7-11.2-1-16.8
		c-0.1-1,0.1-1.5,1.3-1.9c4.2-1.1,6.9-4.1,9-7.7c3.6-6.4,5.2-13.4,4.6-20.8c-0.3-3.5-0.7-6.9-3-9.7c-1.2-1.5-2.3-3.1-3.3-4.7
		c-1.7-2.5-4.1-4.3-6.9-5.5c-0.4-0.2-0.8-0.4-1.2-0.6c0.1-0.2,0.1-0.3,0.2-0.5c0.4,0.1,0.9,0.1,1.3,0.2c3.7,1.5,6.6,3.9,8.4,7.5
		c0.4,0.7,1.1,1.3,1.5,2c1.1,1.9,2.7,3.8,3.2,5.9c2.3,10.5,0.5,20.3-5.8,29.2c-1.8,2.5-4.2,4.4-7.2,5.3c-1,0.3-1.2,0.7-1.1,1.7
		c0.3,5.1,0.6,10.3,0.9,15.4c0.1,1,0,2.1,0,3.3c-0.5,0-0.9,0.1-1.4,0.1c-7.1,0-14.2,0-21.2,0c-1.2,0-1.6-0.4-1.7-1.6
		c-0.1-3-0.4-5.9-0.5-8.9c0-1-0.4-1.3-1.4-1.3c-2.5-0.1-5-0.2-7.4-0.6c-3.5-0.5-6-2.5-6.8-6C8.8,80.7,8.4,77.2,8,73.8
		c-0.1-1.1-0.4-1.6-1.5-1.6c-0.4,0-0.8,0-1.2-0.3c-0.4-0.3-0.8-0.6-1.1-0.9c-0.4-0.4-0.7-0.9-0.9-1.5C3.2,69,3,68.6,3,68.2
		c0-0.3,0.1-0.7,0.1-1c0.2-0.7,0.4-1.5,0.7-2.2c0.8-1.9,1.9-3.7,2.9-5.5c0.3-0.6,0.6-1.1,0.9-1.7c1.6-3,2.7-6.3,3.3-9.7
		c0.1-0.5,0.2-1.1,0.1-1.6c-0.1-0.7-0.6-1.3-1-2c-1.1-1.9-1.1-4.3-0.2-6.3c0.9-1.7,2.4-3,4-3.9c4.6-2.7,10.2-3.5,15.5-3.9
		c0,0.2,0.1,0.4,0.1,0.7c-5.3,0.6-10.7,1.3-15.3,4.1c-1.9,1.1-3.6,2.8-4.1,4.9c-0.4,1.8,0.1,3.8,1.3,5.1c0.4,0.4,0.8,0.8,0.9,1.3
		c0.1,0.3,0,0.6-0.1,0.9c-0.8,3.9-2.2,7.7-4.1,11.2c-1,1.8-2.1,3.6-3.1,5.5c-0.4,0.8-0.7,1.7-1,2.5C4,67.1,3.9,67.6,3.8,68
		c-0.1,0.4,0,0.9,0.1,1.4c0.1,0.5,0.4,0.8,0.8,1.1C5,70.7,5.3,71,5.7,71.1c0.3,0.1,0.7,0.2,1.1,0.2c1.8-0.2,2.2,0.7,2.2,2.3
		c0,2,0.4,4,0.5,6.1c0.1,0.9,0.4,1.3,1.4,1.3C13.6,81,16.2,80.5,18.6,78.2z"/>
	<path d="M37.1,26.3c-4.3-1.7-6.5-5.2-8.6-9c2.8-0.1,6.3,2.3,9.2,5.5c-0.1-1.8,0-3.6-0.3-5.4c-0.4-2.5-1.1-4.9-1.7-7.4
		c-0.1-0.5-0.8-0.9-1.3-1.2c-3.7-1.8-5.7-5-7.3-8.6c3.8,1,7,2.7,8.8,6.5c1.5-1.8,3.2-2.9,5.5-3.2c-0.7,2.2-1.9,4.1-3.9,5.3
		c-0.8,0.5-1.1,1-0.8,1.9c0.5,1.8,1,3.7,1.5,5.8c2-3.3,5-4.8,8.6-6c-0.1,0.6,0,0.9-0.2,1.2c-1.8,3.2-3.8,6.3-7.4,7.9
		c-0.3,0.1-0.7,0.6-0.7,0.9c0.1,3.7-0.8,7.2-1.7,10.7c-0.1,0.3-0.1,0.6-0.2,1.3c2.4-4.1,5.9-5.9,9.9-7.2c0.1,3.5-6,9.7-10.5,10.9
		c-0.5,3.9-0.2,7.8,0.5,11.7c0.1,0.4,0.5,0.8,0.9,1c1.4,0.8,2,2.2,1.5,3.6c-0.4,1.2-1.9,1.9-3.3,1.4c-0.7-0.3-1.5-1-1.7-1.7
		c-0.4-1.1-0.1-2.2,1-3c0.4-0.3,0.8-1,0.8-1.4c-1.1-6.8-0.9-13.6,1.2-20.3C37,27,37,26.7,37.1,26.3z M37.2,34.7c3-0.9,7.1-5.1,8-8.1
		C40.8,27.9,37,31.7,37.2,34.7z M35.2,8.3c-0.2-2.8-3.1-5.7-6.8-6.8C30.2,4.3,32,6.9,35.2,8.3z M38.4,18.8c3.4-1.4,5.2-3.9,6.7-6.7
		C42.1,13.3,39.5,14.9,38.4,18.8z M30.2,18.6c1.8,2.8,3.5,5.4,6.7,6.7C36.8,22.4,33.6,19.3,30.2,18.6z M36.5,49.4
		c-1,0-1.9,0.9-1.9,1.9c0,1,0.8,1.9,1.9,1.9c0.9,0,2-1,1.9-1.9C38.3,50.1,37.7,49.5,36.5,49.4z M36.4,8.1c0.1,0.1,0.3,0.3,0.4,0.4
		C37.9,7.4,39,6.2,40,5.1c-0.1-0.1-0.2-0.2-0.3-0.3C38.2,5.5,37,6.5,36.4,8.1z"/>
	<path d="M43.1,45.3c-0.8-2-2.4-3-4.9-3.2c1.6-0.9,3.4-0.5,4.5,1c0.7,1,1.4,1,2.5,0.8c2.5-0.5,4.9,1.3,5.6,3.8
		c0.2,0.7,0.7,1.3,1.2,1.8c1.4,1.2,2.4,2.6,2.1,4.6c-0.1,0.8,0,1.6,0.1,2.3c0.3,2.4-1,4.6-3.3,5.5c-0.6,0.2-1.2,0.7-1.5,1.2
		c-2.9,5.4-11.1,5.8-14.6,0.7c-0.3-0.5-1-0.7-1.6-1c-2-0.9-4.1-1.2-6.3-1.4c-1.6-0.1-2.6-1.5-3.4-2.8c-0.3-0.4-0.7-0.7-1.2-1
		c-2-1-3.6-2.2-3.8-4.7c-0.1-0.9-0.3-1.8-0.4-2.6c-0.1-3.3,4.4-7.6,7.7-7.2c0.8,0.1,1.3-0.1,1.9-0.7c1-1.1,2.4-1.6,3.9-1.5
		c0.3,0,0.6,0.2,0.9,0.3c0,0.1-0.1,0.3-0.1,0.4c-0.5,0-1.1-0.1-1.5,0.1c-1,0.4-2,0.9-2.9,1.6c-0.6,0.5-0.8,0.8-1.7,0.6
		c-1.8-0.4-3.3,0.2-4.4,1.7c-0.1,0.1-0.1,0.3-0.3,0.4c-3.3,1.8-2.9,4.5-2.1,7.4c0.5,1.8,1.7,2.6,3.4,3.2c0.5,0.2,1.2,0.7,1.4,1.2
		c1.1,2.4,2.8,3.3,5.3,2.7c0,0,0.1-0.1,0.1,0c0.9,0.4,1.9,0.8,2.8,1.2c0.9,0.4,2-0.3,2.8,1.1c1.5,2.8,4.1,3.8,7.1,3.6
		c2.8-0.2,5-1.6,6.3-4.2c0.2-0.5,0.8-0.9,1.3-1.1c2.5-0.7,3.8-3,3.1-5.4c-0.2-0.5-0.1-1.2,0-1.7c0.2-1.9-0.5-3.3-2.1-4.2
		c-0.4-0.2-0.8-0.7-0.9-1.1c-0.8-3.6-2.9-4.8-6.4-3.6C43.5,45.3,43.4,45.3,43.1,45.3z"/>
	<path class="st0" d="M37.2,34.7c-0.1-3,3.6-6.9,8-8.1C44.3,29.6,40.1,33.9,37.2,34.7z"/>
	<path class="st0" d="M35.2,8.3c-3.2-1.4-5-3.9-6.8-6.8C32.1,2.5,35,5.4,35.2,8.3z"/>
	<path class="st0" d="M38.4,18.8c1-3.9,3.6-5.5,6.7-6.7C43.7,14.9,41.9,17.4,38.4,18.8z"/>
	<path class="st0" d="M30.2,18.6c3.4,0.7,6.6,3.9,6.7,6.7C33.8,23.9,32,21.4,30.2,18.6z"/>
	<path class="st0" d="M36.5,49.4c1.2,0.1,1.8,0.8,1.9,1.9c0.1,0.9-1,1.9-1.9,1.9c-1,0-1.9-0.9-1.9-1.9
		C34.7,50.2,35.5,49.4,36.5,49.4z"/>
	<path class="st0" d="M36.4,8.1c0.6-1.6,1.8-2.6,3.3-3.3C39.8,4.9,39.9,5,40,5.1c-1.1,1.1-2.1,2.2-3.2,3.4
		C36.7,8.4,36.5,8.2,36.4,8.1z"/>
</g>
</svg>
