<?xml version="1.0" encoding="utf-8"?>
<!-- Generator: Adobe Illustrator 21.0.2, SVG Export Plug-In . SVG Version: 6.00 Build 0)  -->
<svg version="1.1" id="Layer_1" xmlns="http://www.w3.org/2000/svg" xmlns:xlink="http://www.w3.org/1999/xlink" x="0px" y="0px"
	 viewBox="0 0 128 160" style="enable-background:new 0 0 128 160;" xml:space="preserve">
<g>
	<path d="M115.6,29.6c-34.7-15-67.3-15.7-102.6-2C8,29.5,5,34.2,5.8,39c0,0.1,0,0.2,0.1,0.3c0,0,0.1,0.6,0.1,1.7c0,0.1,0,0.2,0,0.3
		c0,0.3,0.1,0.8,0,1.7c0,0.1,0,0.2,0,0.3L7.3,52c0.5,4.1,4.4,7.1,8.9,6.7c5.7-0.7,11.8-1.4,18.7-1.9c4.1-0.2,7.5-3.9,7.4-8
		c0-1.3-0.1-3-0.1-4.9c0-0.5,0-1.1-0.1-1.6c0-1.2-0.1-2.3-0.2-3.3c0-0.5,0.1-1.3,0.7-1.9c0.1-0.1,0.1-0.1,0.2-0.2
		c0.5-0.6,1.3-1,2.2-1h0.1c15.4-0.8,22.3-0.5,37.9,0.8h0.1c0.8,0,1.7,0.4,2.1,1.1c0.6,0.8,0.8,1.5,0.7,2.2c0,0.1,0,0.1,0,0.2
		c0,1.2-0.2,2.9-0.4,4.4v0.1c-0.1,0.9-0.1,1.7-0.2,2.5c0,0.8-0.1,1.6-0.2,2.3c-0.2,2,0.4,4.1,1.8,5.7c1.3,1.6,3.2,2.6,5.2,2.7
		c6.9,0.8,13,1.7,18.7,2.7c0.4,0.1,0.9,0.1,1.3,0.1c3.7,0,7.1-2.7,7.8-6.4l1.6-8.5c0.1-0.4,0.1-0.8,0.1-1.3c0-0.3,0-0.6,0.1-0.9
		c0-0.1,0-0.2,0-0.3c0-1.1,0.1-1.6,0.2-1.8v-0.1C123.4,36.7,120.8,31.8,115.6,29.6z M118.1,40.4c-0.3,0.8-0.4,2.1-0.4,2.8
		c-0.1,0.5-0.1,1-0.1,1.3c0,0.1,0,0.3,0,0.4V45l-1.6,8.6c-0.3,2-2.5,3.4-4.5,3c-5.7-1-11.9-1.9-18.9-2.7c-1-0.1-1.9-0.6-2.6-1.4
		c-0.7-0.8-1-1.7-0.9-2.6c0.1-0.8,0.1-1.6,0.2-2.5c0-0.7,0.1-1.5,0.2-2.3c0.3-1.6,0.4-3.4,0.5-4.8c0.2-1.7-0.3-3.4-1.5-4.9
		c-1.2-1.6-3.2-2.6-5.2-2.7c-15.5-1.3-22.8-1.6-38.3-0.8c0,0,0,0-0.1,0c-1.9,0-3.9,0.9-5.1,2.4c-1.3,1.3-1.9,3.1-1.8,5.1
		c0,0.1,0,0.1,0,0.2c0.1,0.7,0.1,1.7,0.2,2.8c0,0.5,0,1.1,0.1,1.6c0.1,1.7,0.2,3.5,0.1,4.8c0,2-1.7,3.9-3.7,4
		c-7,0.5-13.3,1.1-18.9,1.9c-2.2,0.2-4.2-1.2-4.5-3.2L10,42.9c0-0.8,0-1.4-0.1-2c0-0.7,0-1.9-0.2-2.7c-0.4-2.9,1.5-5.7,4.7-6.9
		c34.3-13.2,65.9-12.6,99.6,2C117.3,34.6,118.9,37.6,118.1,40.4z"/>
	<path d="M102.4,67.2c-3.2-3.5-7.2-4.6-11.4-5.8c-3.2-0.9-6.8-1.9-10.7-4.1c-3.1-1.8-6-4-8.4-6.6c-0.8-0.8-2-0.8-2.8-0.1
		c-0.8,0.8-0.8,2-0.1,2.8c2.7,2.9,5.9,5.4,9.4,7.3c4.3,2.4,8.2,3.5,11.6,4.5c4,1.1,7.1,2,9.6,4.7c1.7,1.8,2.8,4.2,3.3,7v29.2H25.3
		V77c0.5-2.8,1.6-5.2,3.2-7c2.5-2.7,5.6-3.5,9.6-4.6c3.5-1,7.4-2,11.7-4.5c3.4-2,6.5-4.4,9.2-7.3c0.7-0.8,0.7-2.1-0.1-2.8
		s-2.1-0.7-2.8,0.1c-2.4,2.6-5.2,4.8-8.2,6.6c-3.9,2.2-7.6,3.3-10.8,4.1c-4.2,1.2-8.2,2.3-11.5,5.8c-2.3,2.4-3.7,5.6-4.3,9.3
		c0,0.1,0,0.2,0,0.3v31.4c0,1.1,0.9,2,2,2h81.5c1.1,0,2-0.9,2-2V76.8c0-0.1,0-0.2,0-0.3C106.1,72.8,104.7,69.7,102.4,67.2z"/>
	<path d="M43.1,81.9c0,11.5,9.4,20.9,20.9,20.9s20.9-9.4,20.9-20.9S75.5,61,64,61S43.1,70.4,43.1,81.9z M64,65.1
		c9.3,0,16.9,7.6,16.9,16.9S73.3,98.8,64,98.8s-16.9-7.6-16.9-16.9S54.7,65.1,64,65.1z"/>
	<path d="M64,72.1c1.8,0,3.2-1.4,3.2-3.2c0-1.8-1.4-3.2-3.2-3.2s-3.2,1.4-3.2,3.2C60.8,70.6,62.2,72.1,64,72.1z"/>
	<path d="M54.8,75.9c1.8,0,3.2-1.4,3.2-3.2c0-1.8-1.4-3.2-3.2-3.2s-3.2,1.4-3.2,3.2C51.6,74.4,53,75.9,54.8,75.9z"/>
	<path d="M50.8,85.3c1.8,0,3.2-1.4,3.2-3.2c0-1.8-1.4-3.2-3.2-3.2s-3.2,1.4-3.2,3.2C47.6,83.8,49,85.3,50.8,85.3z"/>
	<path d="M64,98.5c1.8,0,3.2-1.4,3.2-3.2c0-1.8-1.4-3.2-3.2-3.2s-3.2,1.4-3.2,3.2C60.8,97,62.2,98.5,64,98.5z"/>
	<path d="M73.4,94.6c1.8,0,3.2-1.4,3.2-3.2c0-1.8-1.4-3.2-3.2-3.2c-1.8,0-3.2,1.4-3.2,3.2C70.2,93.1,71.6,94.6,73.4,94.6z"/>
	<path d="M77.2,85.3c1.8,0,3.2-1.4,3.2-3.2c0-1.8-1.4-3.2-3.2-3.2S74,80.3,74,82.1C74,83.8,75.4,85.3,77.2,85.3z"/>
	<path d="M54.7,94.5c1.8,0,3.2-1.4,3.2-3.2c0-1.8-1.4-3.2-3.2-3.2s-3.2,1.4-3.2,3.2C51.5,93,52.9,94.5,54.7,94.5z"/>
	<path d="M73.4,75.9c1.8,0,3.2-1.4,3.2-3.2c0-1.8-1.4-3.2-3.2-3.2c-1.8,0-3.2,1.4-3.2,3.2C70.2,74.4,71.6,75.9,73.4,75.9z"/>
	<path d="M70.5,53.2l-12.5,0.2c-0.7,0-1.3-0.6-1.3-1.3l0-0.5c0-0.7,0.6-1.3,1.3-1.3l12.5-0.2c0.7,0,1.3,0.6,1.3,1.3l0,0.5
		C71.8,52.6,71.2,53.2,70.5,53.2z"/>
</g>
</svg>
