<?xml version="1.0" encoding="utf-8"?>
<!-- Generator: Adobe Illustrator 21.0.2, SVG Export Plug-In . SVG Version: 6.00 Build 0)  -->
<svg version="1.1" id="Layer_1" xmlns="http://www.w3.org/2000/svg" xmlns:xlink="http://www.w3.org/1999/xlink" x="0px" y="0px"
	 viewBox="0 0 786 793" style="enable-background:new 0 0 786 793;" xml:space="preserve">
<style type="text/css">
	.st0{fill:#008290;}
	.st1{fill:#754727;}
	.st2{fill:#D8480F;}
	.st3{fill:none;stroke:#381A06;stroke-miterlimit:10;}
	.st4{fill:#2D200E;}
	.st5{fill:#A52828;}
	.st6{fill:#FFFFFF;}
</style>
<rect x="-4" class="st0" width="814" height="793"/>
<g id="Capa_3">
	<path class="st1" d="M248,382.9c5.7,33.9,27.9,54.1,64.7,76.3c2.2,13.7,4.9,26.2,1.7,37.6c-12.8,17.9-33.9,33.5-58.7,48L158,579.7
		c-36.2,5.6-54.6,26.6-62.4,56.8c-4.7,16.2-7.3,50-9.9,84l582,0.4c-0.6-37.5-4-73.7-17.6-106.3c-15.7-29.4-41.3-35-67.5-38.9
		l-145.9-81.1l0.6-36.9l76.9-19.7l-5.1-175.7l-125.5-115l-201.8,92.6l11.6,154.3L248,382.9z"/>
</g>
<g id="Capa_4">
	<path class="st2" d="M226.5,557.1c-14.5,5.6-60.6,13.4-99.6,30.5c-37.5,27.8-36.5,60.7-40.5,92.9L84,793h594
		c-2.7-39.6-15.7-152.8-23.7-169.2c-18.8-56.4-85.9-47.7-129.1-67.1l-141.8,59.8L226.5,557.1z"/>
	<circle cx="333.9" cy="385.8" r="2.9"/>
</g>
<g id="Layer_2_1_">
</g>
<path class="st3" d="M277.5,445.5l36,10c18.6,13.1,39.1,24.4,58.5,24.5c26.3,1.6,46.1-11.9,66-25"/>
<g id="Capa_2">
	<path class="st4" d="M331.5,92.3C343,78.9,357.2,71,374.4,67.8c19.1-3.5,37.5-0.6,55.5,5.7c21.3,7.4,40.3,18.7,54.6,36.5
		c5.3,6.6,9.5,14.3,12.8,22.1c5.9,13.6,11.1,27.4,20.5,39.1c6,7.4,13.3,13.1,21.8,17.3c6.3,3.2,12.7,6.3,19.2,9.1
		c10.2,4.4,17.6,11.6,22.4,21.4c12,24.7,14.8,50.4,6.6,76.9c-1.6,5.4-4.9,10.3-7.8,15.2c-3.6,6.2-8.1,12-11.3,18.5
		c-7.2,14.7-4.8,27.4,8,37.6c8,6.5,17.5,11.1,26.2,16.7c5.5,3.6,11.4,7,16.1,11.5c8.9,8.5,9.4,19.8,2.5,30c-5,7.3-12,12.2-19.7,16.3
		c-10.1,5.4-19.4,11.7-26.4,20.9c-2.1,2.9-4,6.1-5.3,9.4c-3.5,8.7-1.2,16.7,6.4,23.1c1.8,1.5,3.9,2.8,6,4.1
		c17.4,10.5,23.1,23.9,18.5,43.7c-2.5,10.9-7.2,20.8-14.2,29.5c-1,1.3-3.6,2.5-5.1,2.2c-38.7-10-76.3-22.7-109.9-45.1
		c-13-8.7-24.8-18.8-34.2-31.4c-1.3-1.8-2.3-4.3-2.4-6.5c-0.2-10.3,0-20.5-0.2-30.8c0-2.9,0.9-4.7,3.2-6.4
		c13.7-10.5,26-22.5,37.1-35.7c1.1-1.4,2.2-2.8,3.5-4.4c-1.8-1.2-3.1-2.1-4.5-3c-14-9.1-18.7-24-11.2-38.9c3.3-6.5,8.4-12,12.9-17.9
		c5.2-6.7,11-12.8,15.9-19.7c6.7-9.6,4.7-16.9-6.4-20.3c-11.6-3.6-23.8-5.1-35.7-7.9c-6.6-1.5-13.3-2.9-19.5-5.4
		c-10-4.1-13.9-12.1-11.8-22.7c1.3-6.7,3.1-13.2,4.3-19.9c2.1-11.7-1.9-19.2-13.6-21.6c-11.1-2.3-22.7-3.3-34-3.4
		c-19.4-0.2-38.2-2.7-56.4-9.3c-7.2-2.6-14.2-5.9-21.2-9c-1.5-0.6-2.9-1.4-5.1-2.4c-0.5,6.1-0.8,11.6-1.4,17
		c-1.9,17.1-9.2,23.9-26.3,26.1c-5.9,0.7-11.9,2.4-17.4,4.5c-9.6,3.7-14.4,11.5-14.2,21.6c0.2,10.7,1.6,21.3,2.2,32
		c0.3,5.3,0.1,10.7-0.9,16.5c-1.5-2.7-3.3-5.2-4.4-8c-2.2-5.3-4.2-10.7-5.9-16.1c-0.9-2.9-2.5-4.5-5.4-5.3
		c-10-2.9-18.4,1.8-21.7,12.2c-2.9,9.3-2,18.5,0.6,27.6c3.8,13.2,10.1,24.8,21.1,33.5c9.9,7.8,17.7,8.1,28,0.9
		c3,5,5.8,10.2,8.9,15.1c15.6,24.8,34.8,46.2,57.9,64.3c1.5,1.2,2.8,3.6,2.8,5.5c0.3,10.6,0.3,21.1-0.1,31.7
		c-0.1,2.7-1.8,5.6-3.6,7.9c-14.2,18.3-32.7,31.5-53,42.3c-28.8,15.3-59.7,25-91.2,32.9c-1.4,0.4-3.8-0.1-4.8-1.1
		c-8.2-8.6-16.8-17-24.2-26.2c-8-10-7-21.4,1.8-30.8c3.5-3.7,7.9-6.5,12-9.5c2.8-2.1,5.9-3.7,8.5-5.9c10.9-9.3,11.9-21.2,2.7-32.2
		c-6.4-7.7-14.9-12.6-23.8-16.9c-12.5-6-21-15.6-24.9-28.9c-5.5-18.9,1.4-39,17.5-52.2c8.2-6.7,16.7-13,24-20.5
		c14.5-14.9,16.2-30.3,6.4-48.8c-2.3-4.4-5.1-8.6-7.9-12.7c-16.9-25.1-13.5-62.7,7.6-84.4c7.1-7.3,15.5-11.6,25.4-13.7
		c6.9-1.4,13.7-3.5,20.4-5.8c5.9-2.1,9.8-6.5,11.4-12.6c2-7.3,3.5-14.7,5.6-21.9c8.4-29.5,25.6-52,53.6-65.4c13-6.2,26.7-7.7,40.1-1
		C323.9,86.4,327.4,89.4,331.5,92.3z"/>
	<path class="st5" d="M375.9,434c-21.6-1.1-38.2-13.7-44.9-34c-0.9-2.8-0.4-4.4,1.8-6.2c7.8-6.2,16.5-8.4,26.3-5.8
		c1,0.3,2.1,0.4,3,0.8c9,3.8,17.9,3.6,27.1,0.1c10.2-3.9,20.1-2.4,28.9,4.7c2.4,1.9,3.2,3.6,2.3,6.9
		C414.6,420.8,395.9,435.1,375.9,434z M335.6,399.4c11.9,15.7,29,17.2,46.7,16.4c15.2-0.7,30.5-8.4,32.6-16.6
		C388.4,407.6,362.2,405.3,335.6,399.4z"/>
	<path class="st6" d="M335.6,399.4c26.6,5.9,52.8,8.2,79.3-0.2c-2.2,8.2-17.4,15.9-32.6,16.6C364.6,416.5,347.5,415.1,335.6,399.4z"
		/>
</g>
<g id="Layer_2">
</g>
</svg>
