<?xml version="1.0" encoding="utf-8"?>
<!-- Generator: Adobe Illustrator 21.0.2, SVG Export Plug-In . SVG Version: 6.00 Build 0)  -->
<svg version="1.1"
	 id="Layer_1" xmlns:cc="http://creativecommons.org/ns#" xmlns:dc="http://purl.org/dc/elements/1.1/" xmlns:inkscape="http://www.inkscape.org/namespaces/inkscape" xmlns:rdf="http://www.w3.org/1999/02/22-rdf-syntax-ns#" xmlns:sodipodi="http://sodipodi.sourceforge.net/DTD/sodipodi-0.dtd" xmlns:svg="http://www.w3.org/2000/svg"
	 xmlns="http://www.w3.org/2000/svg" xmlns:xlink="http://www.w3.org/1999/xlink" x="0px" y="0px" viewBox="0 0 39.7 37.5"
	 style="enable-background:new 0 0 39.7 37.5;" xml:space="preserve">
<g>
	<g transform="translate(0,-952.36218)">
		<path d="M21.7,959.7c-0.2,0-0.5,0.2-0.5,0.5l-3.8,12.7c-0.1,0.4,0,0.7,0.4,0.9c0.4,0.1,0.7,0,0.9-0.4v-0.1l3.8-12.7
			c0.1-0.4-0.1-0.7-0.4-0.7C21.9,959.7,21.8,959.6,21.7,959.7z M15.4,960.6c-0.1,0-0.4,0.1-0.5,0.2l-5.1,5.4c-0.2,0.2-0.2,0.6,0,0.9
			l5.1,5.4c0.2,0.2,0.6,0.2,0.9,0c0.2-0.2,0.2-0.6,0-0.9l0,0l-4.7-4.9l4.7-4.9c0.2-0.2,0.2-0.6,0-0.9
			C15.8,960.7,15.7,960.6,15.4,960.6z M24.3,960.6c-0.4,0-0.6,0.4-0.6,0.6c0,0.1,0.1,0.2,0.1,0.4l4.7,4.9l-4.7,4.9
			c-0.2,0.2-0.2,0.6,0,0.9s0.6,0.2,0.9,0l0,0l5.1-5.4c0.2-0.2,0.2-0.6,0-0.9l-5.1-5.4C24.7,960.7,24.4,960.6,24.3,960.6z"/>
	</g>
	<path d="M27.9,33.1v-4.3h-16v4.3h-1.5c-1.1,0-2,0.9-2,2c0,1.1,0.9,2,2,2h18.9c1.1,0,2-0.9,2-2c0-1.1-0.9-2-2-2H13.1V30h13.6v3.1
		H27.9z M30.1,35c0,0.4-0.4,0.7-0.7,0.7H10.5c-0.4,0-0.7-0.4-0.7-0.7s0.4-0.7,0.7-0.7h18.9C29.7,34.3,30.1,34.7,30.1,35z"/>
	<path d="M37.1,0.2H2.6c-1.4,0-2.5,1.1-2.5,2.5v21c0,1.4,1.1,2.5,2.5,2.5h34.5c1.4,0,2.5-1.1,2.5-2.5v-21
		C39.6,1.4,38.5,0.2,37.1,0.2z M38.3,23.7c0,0.7-0.5,1.2-1.2,1.2H2.6c-0.7,0-1.2-0.5-1.2-1.2v-21c0-0.7,0.5-1.2,1.2-1.2h34.5
		c0.7,0,1.2,0.5,1.2,1.2V23.7z"/>
</g>
</svg>
